#Comment line ignore any data following # character
#Hierarchical Translation and Rotation (.htr) file
[Header]		#Header keywords are followed by a single value
FileType htr		#Single word string
DataType HTRS		#Translation followed by rotation and scale data
FileVersion 1		#integer
NumSegments 18		#integer
NumFrames 8		#integer
DataFrameRate 60		#integer, data frame rate in this file
EulerRotationOrder ZYX
CalibrationUnits mm
RotationUnits Degrees
GlobalAxisofGravity Y
BoneLengthAxis Y
ScaleFactor 1.000000
[SegmentNames&Hierarchy]
#CHILD	PARENT
Head	Neck
Neck	Chest
Chest	Hips
LeftShoulder	LeftCollar
RightShoulder	RightCollar
LeftElbow	LeftShoulder
RightElbow	RightShoulder
LeftWrist	LeftElbow
RightWrist	RightElbow
Hips	GLOBAL
LeftHip	Hips
RightHip	Hips
LeftKnee	LeftHip
RightKnee	RightHip
LeftAnkle	LeftKnee
RightAnkle	RightKnee
LeftCollar	Chest
RightCollar	Chest
[BasePosition]
#SegmentName Tx, Ty, Tz, Rx, Ry, Rz, BoneLength
Head	0.000003	141.966248	0.000002	-37.745777	-8.179454	6.203664	80.000046
Neck	0.000000	379.566772	0.000000	32.855431	-5.194619	1.823337	141.966263
Chest	0.000000	94.891693	0.000000	0.000002	12.877405	-0.000012	379.566803
LeftShoulder	0.000003	154.023666	0.000005	171.957962	-79.977570	-157.094910	215.219986
RightShoulder	-0.000001	146.408707	-0.000001	20.020029	60.865143	-8.207462	240.139038
LeftElbow	0.000007	215.219971	-0.000011	-24.162848	54.442085	-17.491318	336.440125
RightElbow	-0.000021	240.139038	0.000007	-21.925606	-43.617706	23.102211	322.101532
LeftWrist	-0.000014	336.440094	0.000002	173.178864	-0.531422	156.628021	100.348160
RightWrist	0.000005	322.101501	0.000026	1.868945	1.747480	14.125610	109.739998
Hips	377.886597	1077.530640	704.474976	-179.011169	36.455761	-178.006714	94.891701
LeftHip	95.336761	5.238981	-8.336124	-0.485735	-9.415434	-176.117065	525.916443
RightHip	-96.119095	-4.691877	-4.857316	2.457280	-1.423929	-179.125565	528.302429
LeftKnee	0.000004	525.916443	0.000001	-10.646533	-14.541370	-1.855900	514.711975
RightKnee	-0.000002	528.302429	0.000004	-12.768950	2.118825	-3.063609	521.764099
LeftAnkle	0.000003	514.711975	0.000009	97.965164	-0.000001	0.000000	253.446518
RightAnkle	0.000001	521.764099	-0.000002	99.242271	0.000002	0.000000	256.283173
LeftCollar	19.999998	366.483276	-15.126845	169.660507	-4.312743	90.901894	154.023682
RightCollar	-19.999996	366.483215	-15.126822	171.369568	4.171492	-91.645760	146.408707
#Beginning of Data. Separated by tabs
[Head]
#Fr	Tx	Ty	Tz	Rx	Ry	Rz	SF
97	-0.000002	9.726471	0.000010	-16.330534	-3.550789	7.172762	1.000000
98	-0.000006	9.109070	0.000002	-15.965723	-3.969501	7.368718	1.000000
99	-0.000002	8.641235	-0.000004	-15.592237	-4.444979	7.318326	1.000000
100	-0.000001	8.010239	-0.000004	-15.044826	-4.924258	7.435869	1.000000
101	-0.000002	7.423950	0.000001	-14.539180	-5.440994	7.354211	1.000000
102	-0.000002	6.968109	0.000006	-14.083742	-5.952789	7.544180	1.000000
103	-0.000004	6.834457	0.000002	-13.790895	-6.504335	7.339355	1.000000
104	-0.000005	6.335831	0.000001	-13.104900	-7.075493	7.882614	1.000000
[Neck]
#Fr	Tx	Ty	Tz	Rx	Ry	Rz	SF
97	0.000002	-18.638397	0.000011	1.258076	-1.431571	-2.221300	1.068512
98	-0.000007	-18.398193	0.000006	0.994297	-1.563430	-2.159048	1.064164
99	0.000006	-18.190247	-0.000011	0.689520	-1.714247	-1.937784	1.060868
100	-0.000008	-17.938812	-0.000002	0.400635	-1.838907	-1.876768	1.056424
101	-0.000003	-17.691040	-0.000002	0.092629	-1.962613	-1.716914	1.052294
102	-0.000003	-17.395416	0.000013	-0.149085	-2.096159	-1.694127	1.049083
103	-0.000001	-17.064575	0.000001	-0.387212	-2.239586	-1.400220	1.048141
104	0.000001	-16.716278	0.000019	-0.581436	-2.373657	-1.611905	1.044629
[Chest]
#Fr	Tx	Ty	Tz	Rx	Ry	Rz	SF
97	-0.000002	-4.659653	0.000001	-0.000017	-5.536625	0.000007	0.950896
98	-0.000000	-4.599533	0.000000	-0.000013	-5.489588	0.000013	0.951528
99	-0.000001	-4.547546	0.000001	0.000013	-5.430641	0.000010	0.952076
100	-0.000002	-4.484634	-0.000001	-0.000000	-5.342717	0.000020	0.952739
101	-0.000000	-4.422714	0.000004	0.000034	-5.279201	0.000010	0.953391
102	0.000001	-4.348869	-0.000001	-0.000022	-5.180519	0.000015	0.954170
103	-0.000000	-4.266136	0.000002	-0.000010	-5.066361	0.000014	0.955042
104	0.000001	-4.179115	0.000001	-0.000030	-4.959302	0.000010	0.955960
[LeftShoulder]
#Fr	Tx	Ty	Tz	Rx	Ry	Rz	SF
97	0.000003	11.576385	-0.000006	68.537094	44.890820	91.089874	1.162232
98	-0.000007	11.332382	-0.000006	67.167274	44.226799	88.935471	1.163144
99	-0.000005	11.083755	-0.000014	65.747383	43.456886	86.713692	1.164029
100	-0.000001	10.867630	0.000004	64.356956	42.566578	84.474762	1.165025
101	0.000000	10.670700	-0.000006	62.999676	41.595726	82.238388	1.165989
102	-0.000006	10.480515	-0.000005	61.728580	40.515808	80.023476	1.167128
103	0.000000	10.303543	-0.000008	60.543491	39.325886	77.853035	1.168417
104	-0.000003	10.140549	-0.000022	59.469452	38.044094	75.695839	1.169721
[RightShoulder]
#Fr	Tx	Ty	Tz	Rx	Ry	Rz	SF
97	0.000001	10.657028	0.000001	80.615707	-58.915859	-115.329727	1.013372
98	0.000008	10.797287	-0.000002	79.392456	-58.966278	-114.047935	1.013164
99	-0.000002	10.921143	-0.000000	77.736145	-59.007076	-112.374893	1.012873
100	-0.000000	11.026001	0.000004	75.837692	-59.038212	-110.502487	1.012647
101	-0.000007	11.101944	0.000001	73.654770	-59.023617	-108.376793	1.012441
102	0.000005	11.146118	0.000007	71.090935	-58.909782	-105.897423	1.012457
103	0.000006	11.179214	0.000003	68.691261	-58.778595	-103.669159	1.012673
104	-0.000002	11.189453	0.000000	66.333862	-58.575741	-101.531311	1.013173
[LeftElbow]
#Fr	Tx	Ty	Tz	Rx	Ry	Rz	SF
97	-0.000017	34.915451	0.000015	-124.364601	-24.188889	13.221700	0.654532
98	-0.000017	35.111862	0.000002	-122.915413	-24.215288	12.952088	0.659504
99	-0.000018	35.302231	0.000011	-121.309731	-24.060810	12.899734	0.664692
100	-0.000007	35.516617	0.000041	-119.556458	-23.769112	13.031664	0.670048
101	-0.000005	35.724213	-0.000005	-117.629364	-23.390175	13.321432	0.675311
102	-0.000010	35.969238	0.000039	-115.634361	-22.803820	14.000036	0.680639
103	-0.000000	36.246658	0.000019	-113.508110	-22.117182	14.984420	0.685775
104	0.000001	36.527405	0.000003	-111.311005	-21.306692	16.401480	0.691115
[RightElbow]
#Fr	Tx	Ty	Tz	Rx	Ry	Rz	SF
97	0.000026	3.211212	-0.000018	-45.422394	55.879471	80.021896	0.745846
98	0.000019	3.161255	-0.000014	-45.659309	55.517445	79.177521	0.748038
99	0.000004	3.091339	-0.000022	-46.417553	55.331936	77.658905	0.750747
100	0.000009	3.037003	-0.000021	-47.277218	55.091564	75.902260	0.754436
101	0.000028	2.987610	0.000011	-48.498604	54.927311	73.633308	0.758783
102	0.000029	2.991364	0.000009	-50.473518	54.998383	70.436264	0.763753
103	0.000025	3.043213	-0.000002	-52.000469	54.773701	67.588150	0.769793
104	0.000031	3.163391	0.000004	-53.510216	54.445206	64.627357	0.776457
[LeftWrist]
#Fr	Tx	Ty	Tz	Rx	Ry	Rz	SF
97	0.000034	-116.229324	-0.000009	105.410202	-51.951870	-81.366692	0.894327
98	0.000008	-114.556625	0.000014	106.889946	-52.297241	-83.847580	0.888449
99	0.000002	-112.810898	-0.000008	108.459953	-52.482670	-86.403397	0.886025
100	0.000013	-111.009018	0.000018	110.093620	-52.604572	-89.034035	0.885785
101	0.000034	-109.238495	-0.000003	111.698921	-52.816212	-91.685379	0.887518
102	0.000005	-107.445877	-0.000007	113.238289	-52.900467	-94.373741	0.891756
103	0.000045	-105.717712	-0.000029	114.627083	-53.073669	-97.126930	0.897181
104	0.000040	-103.921219	0.000026	115.785500	-53.146969	-99.899597	0.903121
[RightWrist]
#Fr	Tx	Ty	Tz	Rx	Ry	Rz	SF
97	-0.000018	-81.863434	-0.000020	-164.281815	71.221016	-120.213310	0.895765
98	-0.000010	-81.157410	-0.000015	-166.581299	71.742538	-122.408051	0.896967
99	-0.000002	-80.284912	-0.000000	-168.472580	72.318130	-124.356407	0.896819
100	-0.000003	-79.096527	-0.000051	-170.589386	73.006783	-126.585274	0.896887
101	-0.000009	-77.696472	-0.000003	-172.477036	73.714378	-128.745956	0.896079
102	-0.000002	-76.095322	-0.000035	-172.969238	74.369537	-129.832230	0.893684
103	0.000011	-74.149887	-0.000008	-174.562668	75.158920	-131.946121	0.892536
104	-0.000027	-72.003540	-0.000016	-176.048706	75.967178	-134.150558	0.891611
[Hips]
#Fr	Tx	Ty	Tz	Rx	Ry	Rz	SF
97	-1262.873779	-23.052979	-619.744080	46.145813	-78.379181	-11.460512	0.950895
98	-1264.305420	-21.353271	-613.926392	45.181564	-77.537926	-11.050245	0.951529
99	-1265.410400	-19.675293	-608.181335	44.312363	-76.688248	-10.788200	0.952076
100	-1266.371826	-17.941772	-602.617798	43.549187	-75.836143	-10.660688	0.952739
101	-1267.165527	-16.078613	-597.300659	42.740093	-74.955116	-10.502582	0.953392
102	-1267.768555	-14.197510	-592.070313	41.987148	-74.045395	-10.431731	0.954170
103	-1268.153564	-12.250000	-587.098633	41.264648	-73.129333	-10.410971	0.955042
104	-1268.227783	-10.302490	-582.302124	40.481560	-72.173584	-10.361549	0.955959
[LeftHip]
#Fr	Tx	Ty	Tz	Rx	Ry	Rz	SF
97	1.181801	-5.414941	4.367229	54.169823	-3.521102	2.574371	0.988095
98	1.237885	-5.463682	4.137930	53.393139	-3.618829	2.691072	0.989229
99	1.258163	-5.589336	3.828475	52.645691	-3.684905	2.796677	0.990278
100	1.341217	-5.511890	3.732241	51.865604	-3.748592	2.936367	0.991251
101	1.446785	-5.454541	3.490349	51.135452	-3.718979	2.995404	0.992235
102	1.532944	-5.334235	3.320964	50.479084	-3.667743	3.056984	0.993098
103	1.663414	-5.200945	3.128024	49.827534	-3.628834	3.159375	0.994422
104	1.759399	-4.989707	2.981131	49.165535	-3.573083	3.266252	0.995369
[RightHip]
#Fr	Tx	Ty	Tz	Rx	Ry	Rz	SF
97	-0.359642	1.575055	2.108316	53.373394	0.255856	-6.312530	1.010426
98	-0.449898	1.525828	2.051674	52.439896	0.096521	-5.965864	1.010898
99	-0.515938	1.492988	1.931912	51.429047	-0.081454	-5.607514	1.011312
100	-0.590729	1.384623	1.857955	50.344067	-0.187043	-5.209864	1.011883
101	-0.722519	1.251024	1.828708	49.235718	-0.284273	-4.877708	1.012109
102	-0.824074	1.113278	1.837851	48.052982	-0.361284	-4.515559	1.012235
103	-0.975487	0.963324	1.859955	46.799732	-0.433854	-4.166500	1.012382
104	-1.071945	0.756104	1.868826	45.509087	-0.469995	-3.817038	1.012094
[LeftKnee]
#Fr	Tx	Ty	Tz	Rx	Ry	Rz	SF
97	0.000002	-6.260925	0.000009	-22.143557	9.473068	4.151283	0.970155
98	-0.000022	-5.664429	0.000027	-21.181101	10.453809	4.192975	0.968699
99	-0.000001	-5.113281	0.000014	-20.334671	11.434364	4.385342	0.967923
100	-0.000014	-4.601196	0.000020	-19.510031	12.422701	4.552802	0.967224
101	-0.000000	-4.083740	-0.000027	-18.686022	13.355490	4.939388	0.967255
102	-0.000002	-3.629883	0.000023	-18.060064	14.071404	5.385070	0.967789
103	-0.000015	-2.933350	0.000018	-17.513233	14.636000	5.688857	0.968112
104	-0.000006	-2.435303	0.000030	-17.047920	15.251153	5.883856	0.968719
[RightKnee]
#Fr	Tx	Ty	Tz	Rx	Ry	Rz	SF
97	-0.000014	5.507996	0.000020	-29.200544	20.998343	-6.079637	0.987963
98	-0.000007	5.757507	0.000036	-28.884617	21.767591	-6.099413	0.988112
99	0.000013	5.976074	-0.000017	-28.541985	22.594210	-6.133515	0.988154
100	0.000018	6.277954	-0.000012	-28.083183	23.324078	-6.005419	0.987492
101	0.000004	6.397095	-0.000018	-27.601242	24.159306	-5.827793	0.987341
102	-0.000017	6.463806	0.000015	-27.039692	25.023651	-5.587543	0.987066
103	-0.000007	6.541504	-0.000030	-26.340639	25.867874	-5.244209	0.986397
104	-0.000005	6.389038	-0.000001	-25.631041	26.740604	-4.897454	0.986204
[LeftAnkle]
#Fr	Tx	Ty	Tz	Rx	Ry	Rz	SF
97	-0.000010	-15.361542	-0.000001	0.349350	-0.000000	-0.000001	1.027316
98	-0.000017	-16.111145	0.000045	-0.309239	0.000000	-0.000001	1.027445
99	0.000012	-16.510590	0.000004	-0.905915	0.000000	-0.000002	1.027276
100	-0.000022	-16.870087	-0.000027	-1.458639	-0.000000	-0.000001	1.027201
101	0.000015	-16.854279	-0.000006	-1.982934	-0.000001	-0.000002	1.026799
102	-0.000002	-16.579559	-0.000023	-2.474684	0.000000	-0.000001	1.027019
103	-0.000012	-16.413422	-0.000035	-2.844688	0.000001	-0.000001	1.026823
104	0.000021	-16.100891	0.000038	-3.107749	-0.000000	-0.000001	1.026737
[RightAnkle]
#Fr	Tx	Ty	Tz	Rx	Ry	Rz	SF
97	-0.000009	-6.280579	-0.000046	7.384542	-0.000001	0.000001	1.004843
98	0.000027	-6.202576	-0.000018	7.557434	0.000001	0.000002	1.004007
99	0.000012	-6.180847	0.000002	7.684952	0.000001	0.000003	1.004955
100	0.000012	-6.526245	-0.000031	7.779659	0.000001	0.000002	1.004792
101	-0.000003	-6.604797	-0.000059	7.826243	-0.000000	0.000000	1.005333
102	0.000007	-6.748718	-0.000034	7.863630	-0.000001	0.000001	1.006672
103	0.000031	-7.097656	-0.000055	7.817300	0.000001	0.000001	1.007032
104	0.000013	-7.198425	-0.000027	7.785897	0.000000	0.000001	1.007849
[LeftCollar]
#Fr	Tx	Ty	Tz	Rx	Ry	Rz	SF
97	0.000008	-16.991302	-1.280742	-7.856771	6.161821	4.615975	1.075160
98	-0.000006	-16.839661	-1.218629	-7.941496	5.861138	4.669798	1.073575
99	0.000002	-16.711304	-1.162299	-7.986136	5.584774	4.746739	1.071961
100	-0.000002	-16.541046	-1.104138	-8.030055	5.301443	4.824266	1.070558
101	0.000000	-16.378937	-1.042132	-8.038815	4.996714	4.945891	1.069280
102	0.000000	-16.169922	-0.978639	-8.068025	4.689419	5.045292	1.068045
103	0.000000	-15.930084	-0.911275	-8.067947	4.361760	5.156503	1.066896
104	0.000002	-15.674896	-0.841457	-8.076289	4.026142	5.275541	1.065838
[RightCollar]
#Fr	Tx	Ty	Tz	Rx	Ry	Rz	SF
97	-0.000004	-16.991211	-1.280786	-4.368322	-5.630867	-10.403283	1.072790
98	0.000002	-16.839569	-1.218677	-4.227544	-5.300102	-10.373707	1.073748
99	0.000002	-16.711151	-1.162362	-4.080733	-4.999101	-10.339611	1.074594
100	-0.000011	-16.540985	-1.104165	-3.935665	-4.691864	-10.303690	1.075310
101	-0.000004	-16.378815	-1.042109	-3.810755	-4.371817	-10.244604	1.075828
102	-0.000011	-16.169891	-0.978681	-3.661387	-4.043382	-10.200379	1.076130
103	-0.000002	-15.930023	-0.911326	-3.529095	-3.701793	-10.140235	1.076356
104	-0.000002	-15.674835	-0.841491	-3.404535	-3.353312	-10.069401	1.076426
[EndOfFile]
